<?xml version="1.0" encoding="UTF-8" standalone="no"?>
<!DOCTYPE svg PUBLIC "-//W3C//DTD SVG 1.1//EN" "http://www.w3.org/Graphics/SVG/1.1/DTD/svg11.dtd">
<svg version="1.1" xmlns="http://www.w3.org/2000/svg" xmlns:xlink="http://www.w3.org/1999/xlink" preserveAspectRatio="xMidYMid meet" viewBox="0 0 640 640" width="640" height="640"><defs><path d="M307.68 485.46C310.24 477.28 311.66 472.73 311.95 471.82C361.23 314.3 465.1 178.81 604.4 90.32C606.72 88.84 618.34 81.45 639.26 68.16C614.89 72.67 601.36 75.18 598.65 75.68C457.28 101.88 340.54 195.21 283.81 326.52C246.72 282.58 203.2 244.97 154.23 214.63C153.73 214.32 151.28 212.8 146.86 210.05L74.56 351.83C80.93 353 84.47 353.65 85.17 353.78C167.52 368.74 243.2 411.7 298.27 474.68C299.52 476.11 302.66 479.71 307.68 485.46Z" id="d2hIXwUuYf"></path><path d="M449.83 259.89C483.47 325.51 482.1 404.91 445.6 469.13C411.85 528.46 351.35 568.67 283.79 576.66C237.39 582.15 191.48 572.56 150.95 548.93C47.75 488.71 12 354.95 71.26 250.74C105.01 191.42 165.52 151.2 233.07 143.21C273.19 138.47 312.98 145.06 349.21 162.22C361.55 155.95 374.36 150.53 387.49 145.8C386.94 145.48 382.55 142.92 382 142.6C335.41 115.44 282.58 104.41 229.23 110.72C151.55 119.91 82 166.12 43.17 234.37C-24.97 354.21 16.14 508.04 134.8 577.26C181.43 604.46 234.24 615.49 287.56 609.19C287.56 609.19 287.6 609.18 287.6 609.18C365.28 600 434.84 553.75 473.69 485.52C516.57 410.11 517.31 316.41 476.04 240.03C475.83 240.17 474.78 240.91 472.89 242.24C462.5 249.94 454.81 255.82 449.83 259.89Z" id="dH9pt8Pxx"></path></defs><g><g><g><g><use xlink:href="#d2hIXwUuYf" opacity="1" fill="#aac342" fill-opacity="1"></use><g><use xlink:href="#d2hIXwUuYf" opacity="1" fill-opacity="0" stroke="#000000" stroke-width="1" stroke-opacity="0"></use></g></g><g><use xlink:href="#dH9pt8Pxx" opacity="1" fill="#aac342" fill-opacity="1"></use><g><use xlink:href="#dH9pt8Pxx" opacity="1" fill-opacity="0" stroke="#000000" stroke-width="1" stroke-opacity="0"></use></g></g></g></g></g></svg>